<svg xmlns:xlink="http://www.w3.org/1999/xlink" fill="none" viewBox="0 0 1500 1000"><g clip-path="url(#clip0)"><path fill="#111" d="M0 0h1500v1000H0z"/><path fill="#000" d="M193.557 290.769C201.371 272.137 219.696 260 240.013 260H1259.99c20.31 0 38.64 12.137 46.45 30.769l79.69 190a49.717 49.717 0 010 38.462l-79.69 190c-7.81 18.632-26.14 30.769-46.45 30.769H240.013c-20.317 0-38.642-12.137-46.456-30.769l-79.686-190a49.708 49.708 0 010-38.462l79.686-190z"/><path fill="#fff" d="M164 475h50v50h-50z"/><path fill="url(#pattern0)" d="M0 0h50v50H0z" transform="translate(164 475)"/><path fill="#fff" d="M238.818 508.141h2.813c-.358-2.589-2.64-4.411-5.6-4.411-3.458 0-6.123 2.493-6.123 6.737 0 4.142 2.493 6.712 6.181 6.712 3.304 0 5.663-2.09 5.663-5.536v-1.649h-5.478v2.084h2.813c-.039 1.624-1.145 2.653-2.985 2.653-2.078 0-3.388-1.553-3.388-4.289 0-2.723 1.361-4.264 3.362-4.264 1.425 0 2.391.735 2.742 1.963zm9.398 9.051c2.979 0 4.832-2.039 4.832-5.063 0-3.042-1.853-5.075-4.832-5.075s-4.832 2.033-4.832 5.075c0 3.024 1.853 5.063 4.832 5.063zm.013-2.11c-1.374 0-2.078-1.259-2.078-2.972s.704-2.979 2.078-2.979c1.349 0 2.052 1.266 2.052 2.979s-.703 2.972-2.052 2.972zm11.026 2.11c2.979 0 4.833-2.039 4.833-5.063 0-3.042-1.854-5.075-4.833-5.075s-4.832 2.033-4.832 5.075c0 3.024 1.853 5.063 4.832 5.063zm.013-2.11c-1.374 0-2.077-1.259-2.077-2.972s.703-2.979 2.077-2.979c1.349 0 2.052 1.266 2.052 2.979s-.703 2.972-2.052 2.972zm10.208 2.078c1.585 0 2.41-.914 2.787-1.732h.115V517h2.685v-13.091h-2.717v4.922h-.083c-.364-.799-1.151-1.777-2.793-1.777-2.154 0-3.976 1.675-3.976 5.05 0 3.285 1.745 5.056 3.982 5.056zm.863-2.167c-1.336 0-2.065-1.189-2.065-2.902 0-1.7.716-2.87 2.065-2.87 1.323 0 2.065 1.118 2.065 2.87 0 1.751-.755 2.902-2.065 2.902zm11.18-11.084V517h2.684v-8.553h.109l3.388 8.489h1.828l3.388-8.457h.108V517h2.685v-13.091h-3.413l-3.605 8.796h-.154l-3.605-8.796h-3.413zm20.855 13.283c2.979 0 4.833-2.039 4.833-5.063 0-3.042-1.854-5.075-4.833-5.075-2.978 0-4.832 2.033-4.832 5.075 0 3.024 1.854 5.063 4.832 5.063zm.013-2.11c-1.374 0-2.077-1.259-2.077-2.972s.703-2.979 2.077-2.979c1.349 0 2.052 1.266 2.052 2.979s-.703 2.972-2.052 2.972zm6.59 1.918h2.723v-5.555c0-1.208.882-2.039 2.084-2.039.377 0 .895.064 1.151.147v-2.416a4.126 4.126 0 00-.857-.096c-1.099 0-2.001.639-2.359 1.854h-.102v-1.713h-2.64V517zm10.089-5.676c.006-1.266.76-2.007 1.86-2.007 1.093 0 1.751.716 1.745 1.917V517h2.723v-6.251c0-2.289-1.343-3.695-3.388-3.695-1.458 0-2.512.716-2.953 1.86h-.115v-1.732h-2.595V517h2.723v-5.676zM327.54 517h2.723v-9.818h-2.723V517zm1.368-11.084c.811 0 1.476-.62 1.476-1.38 0-.755-.665-1.375-1.476-1.375-.806 0-1.47.62-1.47 1.375 0 .76.664 1.38 1.47 1.38zm6.259 5.408c.006-1.266.761-2.007 1.86-2.007 1.093 0 1.752.716 1.745 1.917V517h2.723v-6.251c0-2.289-1.342-3.695-3.388-3.695-1.457 0-2.512.716-2.953 1.86h-.115v-1.732h-2.595V517h2.723v-5.676zm12.898 9.562c2.806 0 4.8-1.278 4.8-3.79v-9.914h-2.704v1.649h-.102c-.364-.799-1.163-1.777-2.806-1.777-2.154 0-3.976 1.675-3.976 5.018 0 3.266 1.771 4.787 3.982 4.787 1.566 0 2.442-.786 2.8-1.598h.115v1.797c0 1.348-.863 1.872-2.045 1.872-1.202 0-1.809-.524-2.033-1.118l-2.519.339c.326 1.546 1.841 2.735 4.488 2.735zm.057-6.072c-1.336 0-2.064-1.061-2.064-2.755 0-1.668.715-2.838 2.064-2.838 1.323 0 2.065 1.118 2.065 2.838 0 1.732-.754 2.755-2.065 2.755z"/><path fill="#F34" d="M229.885 493h2.153v-2.893l1.059-1.293 2.789 4.186h2.575l-3.823-5.623 3.778-4.559h-2.58l-3.664 4.49h-.134v-4.49h-2.153V493zm11.79.144c1.129 0 1.859-.492 2.232-1.203h.06V493h2.008v-5.151c0-1.819-1.541-2.585-3.241-2.585-1.83 0-3.033.875-3.326 2.267l1.959.159c.144-.507.596-.88 1.357-.88.721 0 1.134.363 1.134.99v.03c0 .492-.522.556-1.85.686-1.511.139-2.868.646-2.868 2.351 0 1.512 1.078 2.277 2.535 2.277zm.607-1.461c-.652 0-1.119-.304-1.119-.885 0-.597.492-.89 1.238-.995.462-.064 1.218-.174 1.472-.343v.811c0 .8-.662 1.412-1.591 1.412zm7.455-3.098c.004-.984.591-1.561 1.446-1.561.85 0 1.362.557 1.357 1.492V493h2.118v-4.862c0-1.78-1.044-2.874-2.635-2.874-1.133 0-1.953.557-2.296 1.447h-.09v-1.347h-2.018V493h2.118v-4.415zm7.625 7.279c1.576 0 2.411-.806 2.843-2.039l2.968-8.451-2.242-.01-1.596 5.608h-.079l-1.581-5.608h-2.227l2.739 7.855-.124.323c-.279.716-.811.751-1.556.522l-.478 1.581c.304.129.796.219 1.333.219zm10.116-2.715c1.889 0 3.162-.92 3.46-2.337l-1.959-.129c-.214.582-.761.885-1.467.885-1.059 0-1.73-.701-1.73-1.839v-.005h5.201v-.582c0-2.595-1.571-3.878-3.59-3.878-2.247 0-3.704 1.596-3.704 3.953 0 2.421 1.437 3.932 3.789 3.932zm-1.696-4.738c.045-.87.706-1.566 1.646-1.566.92 0 1.556.656 1.561 1.566h-3.207zM277.937 493h2.098l1.934-6.657h.079l1.939 6.657h2.098l2.913-10.182h-2.351l-1.686 7.09h-.089l-1.854-7.09h-2.014l-1.859 7.075h-.085l-1.685-7.075h-2.352L277.937 493zm14.834.149c1.889 0 3.162-.92 3.46-2.337l-1.959-.129c-.214.582-.761.885-1.467.885-1.059 0-1.73-.701-1.73-1.839v-.005h5.201v-.582c0-2.595-1.571-3.878-3.59-3.878-2.247 0-3.704 1.596-3.704 3.953 0 2.421 1.437 3.932 3.789 3.932zm-1.696-4.738c.045-.87.706-1.566 1.646-1.566.92 0 1.556.656 1.561 1.566h-3.207zm12.936-.87c-.189-1.407-1.322-2.277-3.251-2.277-1.954 0-3.242.905-3.237 2.377-.005 1.143.716 1.884 2.208 2.182l1.322.264c.666.134.97.377.98.76-.01.453-.502.776-1.243.776-.756 0-1.258-.323-1.387-.945l-2.083.11c.198 1.461 1.441 2.361 3.465 2.361 1.978 0 3.395-1.009 3.4-2.515-.005-1.104-.725-1.765-2.207-2.069l-1.382-.278c-.711-.154-.975-.398-.97-.766-.005-.457.512-.755 1.169-.755.736 0 1.173.402 1.277.895l1.939-.12zm5.57-2.177h-1.437v-1.83h-2.118v1.83h-1.044v1.591h1.044v3.977c-.01 1.496 1.009 2.237 2.546 2.172a4.121 4.121 0 001.148-.198l-.333-1.576c-.105.019-.328.069-.527.069-.423 0-.716-.159-.716-.746v-3.698h1.437v-1.591z"/><path fill="#fff" d="M676.42 529h22.223l42.259-83.97v-17.848H669.46v17.599h49.169v.696L676.42 529zm77.595-68.31c0 19.588 13.373 33.161 32.215 33.161 2.834 0 5.519-.497 8.005-1.144L769.576 529h21.626l23.565-34.901c8.75-13.025 12.976-23.117 13.076-33.856.049-21.875-17.053-34.453-37.287-34.453-21.229 0-36.541 13.97-36.541 34.9zm20.681-.745c0-10.093 6.563-17.351 15.959-17.351 9.446 0 16.108 7.258 16.108 17.45 0 10.092-6.662 17.251-16.108 17.251-9.396 0-15.959-7.159-15.959-17.35z"/><path fill="#F34" d="M707.033 598h5.446v-6.239l1.47-1.674 5.356 7.913h6.38l-7.658-11.135 7.287-8.501h-6.252l-6.289 7.453h-.294v-13.999h-5.446V598zm20.953 0h5.446v-11.787c0-2.173 1.38-3.618 3.196-3.618 1.79 0 2.991 1.227 2.991 3.158V598h5.28v-11.991c0-2.033 1.163-3.414 3.145-3.414 1.739 0 3.043 1.087 3.043 3.273V598h5.433v-13.206c0-4.257-2.531-6.686-6.188-6.686-2.876 0-5.113 1.47-5.919 3.72h-.204c-.627-2.275-2.634-3.72-5.331-3.72-2.646 0-4.654 1.406-5.472 3.72h-.23v-3.464h-5.19V598zm44.239-27.409h-4.692l-8.437 31.347h4.692l8.437-31.347zm8.07 16.057c.013-2.532 1.56-4.014 3.784-4.014 2.212 0 3.516 1.419 3.503 3.835V598h5.446v-12.503c.013-4.602-2.697-7.389-6.788-7.389-2.979 0-4.973 1.406-5.868 3.72h-.23v-10.01h-5.293V598h5.446v-11.352z"/><path fill="#fff" d="M725.81 648.545h-3.614c-.042 1.066-1.542 2.881-3.784 2.881v2.932c1.926 0 3.179-.716 3.554-1.296h.162V666h3.682v-17.455zm3.859 5.745c0 3.358 2.292 5.684 5.522 5.684.486 0 .946-.085 1.373-.196L732.336 666h3.708l4.039-5.983c1.5-2.233 2.225-3.963 2.242-5.804.008-3.75-2.923-5.906-6.392-5.906-3.639 0-6.264 2.395-6.264 5.983zm3.545-.128c0-1.73 1.125-2.974 2.736-2.974 1.619 0 2.761 1.244 2.761 2.991 0 1.73-1.142 2.957-2.761 2.957-1.611 0-2.736-1.227-2.736-2.974zm14.056 1.253c1.091 0 2.037-.912 2.046-2.046-.009-1.116-.955-2.028-2.046-2.028-1.125 0-2.054.912-2.045 2.028a2.04 2.04 0 002.045 2.046zm0 8.557c1.091 0 2.037-.912 2.046-2.046-.009-1.116-.955-2.028-2.046-2.028-1.125 0-2.054.912-2.045 2.028a2.04 2.04 0 002.045 2.046zm4.992 2.028h12.444v-3.017h-7.33v-.119l2.548-2.498c3.588-3.272 4.551-4.909 4.551-6.894 0-3.026-2.471-5.165-6.213-5.165-3.664 0-6.179 2.19-6.17 5.616h3.503c-.009-1.67 1.048-2.693 2.642-2.693 1.534 0 2.676.955 2.676 2.489 0 1.389-.852 2.343-2.438 3.869l-6.213 5.753V666zm21.629.239c3.937 0 6.767-2.105 6.776-4.935-.009-2.182-1.688-3.963-3.785-4.313v-.119c1.824-.375 3.128-1.952 3.137-3.869-.009-2.702-2.6-4.696-6.128-4.696-3.537 0-6.128 1.994-6.119 4.696-.009 1.909 1.278 3.494 3.136 3.869v.119c-2.131.35-3.793 2.131-3.784 4.313-.009 2.83 2.829 4.935 6.767 4.935zm0-2.711c-1.756 0-2.932-1.039-2.932-2.514 0-1.508 1.236-2.599 2.932-2.599 1.687 0 2.932 1.091 2.932 2.599 0 1.483-1.185 2.514-2.932 2.514zm0-7.798c-1.474 0-2.523-.963-2.523-2.344 0-1.363 1.032-2.301 2.523-2.301 1.483 0 2.523.946 2.523 2.301 0 1.381-1.057 2.344-2.523 2.344z"/><path fill="#F34" d="M728.489 688h2.153v-4.206h4.141v-1.775h-4.141v-2.426h4.589v-1.775h-6.742V688zm8.027 0h2.118v-4.32c.005-.935.681-1.576 1.536-1.576.289 0 .522.079.721.179l.636-1.75a2.008 2.008 0 00-1.044-.279c-.86 0-1.556.497-1.834 1.442h-.08v-1.332h-2.053V688zm5.906 0h2.118v-7.636h-2.118V688zm1.064-8.621c.632 0 1.149-.482 1.149-1.074 0-.586-.517-1.068-1.149-1.068-.626 0-1.143.482-1.143 1.068 0 .592.517 1.074 1.143 1.074zm5.565 8.745c1.233 0 1.874-.711 2.167-1.347h.09V688h2.088v-10.182h-2.113v3.828h-.065c-.283-.621-.895-1.382-2.172-1.382-1.676 0-3.093 1.303-3.093 3.928 0 2.555 1.358 3.932 3.098 3.932zm.671-1.685c-1.039 0-1.606-.925-1.606-2.257 0-1.323.557-2.232 1.606-2.232 1.029 0 1.606.87 1.606 2.232s-.587 2.257-1.606 2.257zm8.229 1.685c1.233 0 1.874-.711 2.168-1.347h.089V688h2.088v-7.636h-2.113v1.282h-.064c-.284-.621-.895-1.382-2.173-1.382-1.675 0-3.092 1.303-3.092 3.928 0 2.555 1.357 3.932 3.097 3.932zm.671-1.685c-1.039 0-1.606-.925-1.606-2.257 0-1.323.557-2.232 1.606-2.232 1.029 0 1.606.87 1.606 2.232s-.587 2.257-1.606 2.257zm6.723 4.425c1.576 0 2.411-.806 2.844-2.039l2.968-8.451-2.242-.01-1.596 5.608h-.08l-1.581-5.608h-2.227l2.739 7.855-.124.323c-.278.716-.81.751-1.556.522l-.477 1.581c.303.129.795.219 1.332.219zM710.848 707h7.258v-1.76h-4.275v-.07l1.486-1.456c2.093-1.909 2.655-2.864 2.655-4.022 0-1.765-1.442-3.013-3.624-3.013-2.138 0-3.605 1.278-3.6 3.276h2.044c-.005-.974.611-1.571 1.541-1.571.895 0 1.561.557 1.561 1.452 0 .81-.497 1.367-1.422 2.257l-3.624 3.356V707zm12.81.214c2.561 0 4.107-1.949 4.112-5.305.005-3.331-1.561-5.24-4.112-5.24-2.555 0-4.106 1.904-4.111 5.24-.01 3.346 1.546 5.3 4.111 5.305zm0-1.785a1.49 1.49 0 01-1.074-.442l2.67-5.246c.204.547.318 1.273.318 2.168.005 2.347-.75 3.52-1.914 3.52zm-1.62-1.372c-.194-.547-.299-1.263-.299-2.148.005-2.312.756-3.475 1.919-3.475.393 0 .741.134 1.024.403l-2.644 5.22zm7.267 2.943h7.258v-1.76h-4.275v-.07l1.486-1.456c2.093-1.909 2.655-2.864 2.655-4.022 0-1.765-1.442-3.013-3.624-3.013-2.138 0-3.605 1.278-3.6 3.276h2.044c-.005-.974.611-1.571 1.541-1.571.895 0 1.561.557 1.561 1.452 0 .81-.497 1.367-1.422 2.257l-3.624 3.356V707zm12.81.214c2.561 0 4.107-1.949 4.112-5.305.005-3.331-1.561-5.24-4.112-5.24-2.555 0-4.106 1.904-4.111 5.24-.01 3.346 1.546 5.3 4.111 5.305zm0-1.785a1.49 1.49 0 01-1.074-.442l2.67-5.246c.204.547.318 1.273.318 2.168.005 2.347-.75 3.52-1.914 3.52zm-1.62-1.372c-.194-.547-.299-1.263-.299-2.148.005-2.312.756-3.475 1.919-3.475.393 0 .741.134 1.024.403l-2.644 5.22zm12.045-2.988h-4.644v1.68h4.644v-1.68zm6-4.251h-2.108c-.025.622-.9 1.681-2.207 1.681v1.71c1.123 0 1.854-.418 2.073-.756h.094V707h2.148v-10.182zm6.631 0h-2.108c-.025.622-.9 1.681-2.207 1.681v1.71c1.123 0 1.854-.418 2.073-.756h.094V707h2.148v-10.182zm7.193 4.251h-4.644v1.68h4.644v-1.68zm6-4.251h-2.108c-.024.622-.899 1.681-2.207 1.681v1.71c1.124 0 1.854-.418 2.073-.756h.095V707h2.147v-10.182zm6.134 10.321c2.267 0 3.808-1.476 3.803-3.535.005-1.948-1.357-3.35-3.191-3.35-.895 0-1.666.372-2.024.875h-.059l.263-2.551h4.45v-1.76h-6.225l-.482 5.37 1.914.343c.313-.423.92-.687 1.521-.687 1.024.005 1.76.746 1.76 1.815 0 1.059-.721 1.79-1.73 1.79-.855 0-1.546-.537-1.596-1.328h-2.088c.04 1.76 1.576 3.018 3.684 3.018z"/><path fill="#1C4" d="M241 680l.071-.997-.035-.003H241v1zm0 14v1h.036l.035-.003L241 694zm-5.75-10.5a1 1 0 000-2v2zm-5.25-2a1 1 0 000 2v-2zm5.25 5a1 1 0 000-2v2zm-5.25-2a1 1 0 000 2v-2zm5.25 5a1 1 0 000-2v2zm-5.25-2a1 1 0 000 2v-2zm5.25 5a1 1 0 000-2v2zm-5.25-2a1 1 0 000 2v-2zm10.929-9.503c.97.07 2.531.56 3.832 1.573 1.271.99 2.239 2.429 2.239 4.43h2c0-2.749-1.366-4.727-3.011-6.008-1.615-1.258-3.555-1.892-4.918-1.989l-.142 1.994zM241 679c-1.043 0-2.083.266-2.75 1.313-.575.902-.75 2.229-.75 3.937h2c0-1.692.2-2.49.437-2.863.146-.228.356-.387 1.063-.387v-2zm.071 15.997c1.363-.097 3.303-.731 4.918-1.989 1.645-1.281 3.011-3.259 3.011-6.008h-2c0 2.001-.968 3.44-2.239 4.43-1.301 1.013-2.862 1.503-3.832 1.573l.142 1.994zM241 693c-.707 0-.917-.159-1.063-.387-.237-.373-.437-1.171-.437-2.863h-2c0 1.708.175 3.035.75 3.937.667 1.047 1.707 1.313 2.75 1.313v-2zm-1.5-3.25v-5.5h-2v5.5h2zm-4.25-8.25H230v2h5.25v-2zm0 3H230v2h5.25v-2zm0 3H230v2h5.25v-2zm0 3H230v2h5.25v-2z"/><path fill="#F34" d="M271.371 678h2.098l1.934-6.657h.08l1.939 6.657h2.098l2.913-10.182h-2.352l-1.685 7.09h-.089l-1.855-7.09h-2.013l-1.86 7.075h-.084l-1.686-7.075h-2.351L271.371 678zm14.834.149c1.889 0 3.162-.92 3.46-2.337l-1.958-.129c-.214.582-.761.885-1.467.885-1.059 0-1.73-.701-1.73-1.839v-.005h5.2v-.582c0-2.595-1.571-3.878-3.589-3.878-2.248 0-3.704 1.596-3.704 3.953 0 2.421 1.437 3.932 3.788 3.932zm-1.695-4.738c.045-.87.706-1.566 1.645-1.566.92 0 1.557.656 1.562 1.566h-3.207zm8.76 4.733c1.128 0 1.859-.492 2.232-1.203h.06V678h2.008v-5.151c0-1.819-1.541-2.585-3.241-2.585-1.83 0-3.033.875-3.326 2.267l1.959.159c.144-.507.596-.88 1.357-.88.721 0 1.133.363 1.133.99v.03c0 .492-.522.556-1.849.686-1.511.139-2.869.646-2.869 2.351 0 1.512 1.079 2.277 2.536 2.277zm.606-1.461c-.651 0-1.118-.304-1.118-.885 0-.597.492-.89 1.238-.995.462-.064 1.218-.174 1.471-.343v.811c0 .8-.661 1.412-1.591 1.412zm9.399-6.319h-1.437v-1.83h-2.118v1.83h-1.044v1.591h1.044v3.977c-.01 1.496 1.01 2.237 2.546 2.172a4.106 4.106 0 001.148-.198l-.333-1.576c-.104.019-.328.069-.527.069-.422 0-.716-.159-.716-.746v-3.698h1.437v-1.591zm3.662 3.221c.005-.984.606-1.561 1.471-1.561.86 0 1.367.552 1.363 1.492V678h2.117v-4.862c.005-1.79-1.049-2.874-2.64-2.874-1.158 0-1.933.547-2.281 1.447h-.09v-3.893h-2.058V678h2.118v-4.415zm10.098 4.564c1.889 0 3.162-.92 3.46-2.337l-1.958-.129c-.214.582-.761.885-1.467.885-1.059 0-1.73-.701-1.73-1.839v-.005h5.2v-.582c0-2.595-1.571-3.878-3.589-3.878-2.247 0-3.704 1.596-3.704 3.953 0 2.421 1.437 3.932 3.788 3.932zm-1.695-4.738c.045-.87.706-1.566 1.646-1.566.919 0 1.556.656 1.561 1.566h-3.207zm6.582 4.589h2.118v-4.32c0-.94.686-1.586 1.621-1.586.293 0 .696.049.895.114v-1.879a3.166 3.166 0 00-.666-.075c-.855 0-1.556.497-1.835 1.442h-.079v-1.332h-2.054V678z"/><path fill="#fff" d="M285.3 692.656c-.485-4.031-3.537-6.349-7.576-6.349-4.611 0-8.131 3.255-8.131 8.966 0 5.693 3.46 8.966 8.131 8.966 4.474 0 7.176-2.975 7.576-6.188l-3.733-.017c-.349 1.867-1.815 2.94-3.784 2.94-2.65 0-4.448-1.968-4.448-5.701 0-3.631 1.772-5.702 4.474-5.702 2.02 0 3.477 1.168 3.758 3.085h3.733zm2.579-6.111v14.02c.008 2.497 1.304 3.623 4.09 3.52.904-.042 1.398-.17 1.773-.29l-.579-2.642c-.145.052-.316.094-.682.103-.699.008-.963-.35-.972-1.176v-13.535h-3.63zm13.133 17.711c3.972 0 6.443-2.719 6.443-6.75 0-4.057-2.471-6.767-6.443-6.767-3.972 0-6.443 2.71-6.443 6.767 0 4.031 2.471 6.75 6.443 6.75zm.017-2.813c-1.832 0-2.77-1.679-2.77-3.963s.938-3.971 2.77-3.971c1.798 0 2.736 1.687 2.736 3.971s-.938 3.963-2.736 3.963zm17.182-3.017c.008 1.756-1.193 2.676-2.497 2.676-1.372 0-2.259-.963-2.267-2.505v-7.688h-3.631v8.335c.009 3.06 1.798 4.926 4.432 4.926 1.969 0 3.383-1.014 3.971-2.548h.137V704h3.486v-13.091h-3.631v7.517zm11.359 5.787c2.113 0 3.213-1.219 3.716-2.31h.153V704h3.579v-17.455h-3.622v6.563h-.11c-.486-1.065-1.535-2.369-3.725-2.369-2.872 0-5.301 2.233-5.301 6.733 0 4.38 2.327 6.741 5.31 6.741zm1.15-2.889c-1.781 0-2.753-1.585-2.753-3.869 0-2.267.955-3.827 2.753-3.827 1.764 0 2.753 1.491 2.753 3.827 0 2.335-1.006 3.869-2.753 3.869zm11.525 7.585c2.702 0 4.134-1.381 4.875-3.494l5.088-14.506h-3.844l-2.735 9.614h-.137l-2.71-9.614h-3.818l4.696 13.466-.213.554c-.478 1.227-1.389 1.287-2.668.895l-.818 2.71c.52.222 1.364.375 2.284.375z"/><path fill="#F34" d="M374.176 678h6.518v-1.775h-4.365v-8.407h-2.153V678zm11.354.149c2.317 0 3.758-1.586 3.758-3.937 0-2.367-1.441-3.948-3.758-3.948s-3.759 1.581-3.759 3.948c0 2.351 1.442 3.937 3.759 3.937zm.01-1.64c-1.069 0-1.616-.98-1.616-2.312 0-1.333.547-2.317 1.616-2.317 1.049 0 1.596.984 1.596 2.317 0 1.332-.547 2.312-1.596 2.312zm8.576 1.64c2.033 0 3.311-1.193 3.41-2.948h-1.998c-.125.815-.662 1.273-1.387 1.273-.99 0-1.631-.831-1.631-2.292 0-1.442.646-2.267 1.631-2.267.775 0 1.272.512 1.387 1.273h1.998c-.089-1.765-1.427-2.924-3.42-2.924-2.317 0-3.749 1.606-3.749 3.948 0 2.321 1.407 3.937 3.759 3.937zm6.944-.005c1.128 0 1.859-.492 2.232-1.203h.06V678h2.008v-5.151c0-1.819-1.541-2.585-3.241-2.585-1.83 0-3.033.875-3.326 2.267l1.959.159c.144-.507.596-.88 1.357-.88.721 0 1.133.363 1.133.99v.03c0 .492-.522.556-1.849.686-1.511.139-2.869.646-2.869 2.351 0 1.512 1.079 2.277 2.536 2.277zm.606-1.461c-.651 0-1.118-.304-1.118-.885 0-.597.492-.89 1.238-.995.462-.064 1.218-.174 1.471-.343v.811c0 .8-.661 1.412-1.591 1.412zm9.399-6.319h-1.437v-1.83h-2.118v1.83h-1.044v1.591h1.044v3.977c-.009 1.496 1.01 2.237 2.546 2.172a4.106 4.106 0 001.148-.198l-.333-1.576c-.104.019-.328.069-.527.069-.422 0-.716-.159-.716-.746v-3.698h1.437v-1.591zm1.38 7.636h2.118v-7.636h-2.118V678zm1.064-8.621c.631 0 1.148-.482 1.148-1.074 0-.586-.517-1.068-1.148-1.068-.627 0-1.144.482-1.144 1.068 0 .592.517 1.074 1.144 1.074zm6.201 8.77c2.316 0 3.758-1.586 3.758-3.937 0-2.367-1.442-3.948-3.758-3.948-2.317 0-3.759 1.581-3.759 3.948 0 2.351 1.442 3.937 3.759 3.937zm.009-1.64c-1.068 0-1.615-.98-1.615-2.312 0-1.333.547-2.317 1.615-2.317 1.049 0 1.596.984 1.596 2.317 0 1.332-.547 2.312-1.596 2.312zm7.244-2.924c.005-.984.592-1.561 1.447-1.561.85 0 1.362.557 1.357 1.492V678h2.118v-4.862c0-1.78-1.044-2.874-2.635-2.874-1.134 0-1.954.557-2.297 1.447h-.089v-1.347h-2.019V678h2.118v-4.415z"/><path fill="#fff" d="M384.216 691.565h3.537c-.051-3.11-2.608-5.258-6.494-5.258-3.827 0-6.631 2.113-6.614 5.284-.008 2.574 1.807 4.048 4.756 4.756l1.9.477c1.901.46 2.958 1.006 2.966 2.182-.008 1.278-1.218 2.147-3.093 2.147-1.918 0-3.299-.886-3.418-2.633h-3.571c.094 3.775 2.795 5.727 7.031 5.727 4.262 0 6.767-2.037 6.776-5.233-.009-2.906-2.199-4.449-5.233-5.13l-1.568-.375c-1.517-.35-2.787-.912-2.762-2.165 0-1.125.997-1.952 2.804-1.952 1.765 0 2.847.801 2.983 2.173zm9.923 12.682c1.935 0 3.187-.844 3.827-2.062h.102V704h3.443v-8.83c0-3.119-2.642-4.431-5.557-4.431-3.136 0-5.199 1.5-5.702 3.886l3.358.273c.248-.87 1.023-1.509 2.327-1.509 1.236 0 1.943.622 1.943 1.696v.051c0 .844-.895.955-3.17 1.176-2.591.239-4.918 1.108-4.918 4.032 0 2.591 1.85 3.903 4.347 3.903zm1.04-2.506c-1.117 0-1.918-.519-1.918-1.517 0-1.022.844-1.525 2.122-1.704.793-.111 2.088-.298 2.523-.588v1.389c0 1.372-1.134 2.42-2.727 2.42zm12.779-5.309c.009-1.688 1.015-2.676 2.481-2.676 1.457 0 2.335.954 2.326 2.556V704h3.631v-8.335c0-3.051-1.79-4.926-4.517-4.926-1.943 0-3.35.954-3.938 2.48h-.153v-2.31h-3.46V704h3.63v-7.568zm18.263-5.523h-2.464v-3.136h-3.63v3.136h-1.79v2.727h1.79v6.819c-.017 2.565 1.73 3.835 4.363 3.724a7.065 7.065 0 001.969-.341l-.571-2.702c-.179.034-.562.12-.903.12-.725 0-1.228-.273-1.228-1.279v-6.341h2.464v-2.727zm6.098 13.338c1.934 0 3.187-.844 3.826-2.062h.103V704h3.443v-8.83c0-3.119-2.642-4.431-5.557-4.431-3.136 0-5.199 1.5-5.702 3.886l3.358.273c.247-.87 1.023-1.509 2.327-1.509 1.236 0 1.943.622 1.943 1.696v.051c0 .844-.895.955-3.17 1.176-2.591.239-4.918 1.108-4.918 4.032 0 2.591 1.849 3.903 4.347 3.903zm1.039-2.506c-1.116 0-1.917-.519-1.917-1.517 0-1.022.843-1.525 2.122-1.704.792-.111 2.088-.298 2.523-.588v1.389c0 1.372-1.134 2.42-2.728 2.42zm14.772-15.196V704h3.58v-11.403h.145l4.517 11.318h2.437l4.517-11.276h.145V704h3.58v-17.455H462.5l-4.807 11.728h-.205l-4.807-11.728h-4.551zm27.808 17.711c3.971 0 6.443-2.719 6.443-6.75 0-4.057-2.472-6.767-6.443-6.767-3.972 0-6.443 2.71-6.443 6.767 0 4.031 2.471 6.75 6.443 6.75zm.017-2.813c-1.832 0-2.77-1.679-2.77-3.963s.938-3.971 2.77-3.971c1.798 0 2.736 1.687 2.736 3.971s-.938 3.963-2.736 3.963zm12.418-5.011c.008-1.688 1.014-2.676 2.48-2.676 1.457 0 2.335.954 2.326 2.556V704h3.631v-8.335c0-3.051-1.79-4.926-4.517-4.926-1.943 0-3.349.954-3.938 2.48h-.153v-2.31h-3.46V704h3.631v-7.568zM499.672 704h3.63v-13.091h-3.63V704zm1.823-14.778c1.083 0 1.969-.827 1.969-1.841 0-1.006-.886-1.833-1.969-1.833-1.073 0-1.96.827-1.96 1.833 0 1.014.887 1.841 1.96 1.841zm10.63 15.034c3.486 0 5.676-2.046 5.847-5.054h-3.426c-.213 1.397-1.134 2.182-2.378 2.182-1.696 0-2.795-1.424-2.795-3.929 0-2.472 1.107-3.887 2.795-3.887 1.33 0 2.182.878 2.378 2.182h3.426c-.153-3.026-2.446-5.011-5.864-5.011-3.971 0-6.426 2.752-6.426 6.767 0 3.98 2.412 6.75 6.443 6.75zm11.904-.009c1.935 0 3.188-.844 3.827-2.062h.102V704h3.444v-8.83c0-3.119-2.642-4.431-5.557-4.431-3.137 0-5.199 1.5-5.702 3.886l3.358.273c.247-.87 1.023-1.509 2.327-1.509 1.236 0 1.943.622 1.943 1.696v.051c0 .844-.895.955-3.171 1.176-2.59.239-4.917 1.108-4.917 4.032 0 2.591 1.849 3.903 4.346 3.903zm1.04-2.506c-1.116 0-1.917-.519-1.917-1.517 0-1.022.843-1.525 2.122-1.704.792-.111 2.088-.298 2.523-.588v1.389c0 1.372-1.134 2.42-2.728 2.42z"/><path fill="#F34" d="M1061.93 667.818h-2.39l3.51 10.182h2.78l3.51-10.182h-2.39l-2.46 7.736h-.1l-2.46-7.736zm11.17 10.331c2.32 0 3.76-1.586 3.76-3.937 0-2.367-1.44-3.948-3.76-3.948s-3.76 1.581-3.76 3.948c0 2.351 1.44 3.937 3.76 3.937zm.01-1.64c-1.07 0-1.62-.98-1.62-2.312 0-1.333.55-2.317 1.62-2.317 1.05 0 1.59.984 1.59 2.317 0 1.332-.54 2.312-1.59 2.312zm5.12-8.691v8.178c.01 1.457.77 2.113 2.39 2.054.53-.025.82-.1 1.04-.169l-.34-1.542c-.09.03-.19.055-.4.06-.41.005-.56-.204-.57-.686v-7.895h-2.12zm8.28 2.546h-1.44v-1.83h-2.12v1.83h-1.04v1.591h1.04v3.977c-.01 1.496 1.01 2.237 2.55 2.172.55-.019.93-.129 1.15-.198l-.34-1.576c-.1.019-.32.069-.52.069-.43 0-.72-.159-.72-.746v-3.698h1.44v-1.591zm7.62 2.177c-.19-1.407-1.32-2.277-3.25-2.277-1.95 0-3.24.905-3.24 2.377 0 1.143.72 1.884 2.21 2.182l1.32.264c.67.134.97.377.98.76-.01.453-.5.776-1.24.776-.76 0-1.26-.323-1.39-.945l-2.08.11c.2 1.461 1.44 2.361 3.46 2.361 1.98 0 3.4-1.009 3.41-2.515-.01-1.104-.73-1.765-2.21-2.069l-1.38-.278c-.71-.154-.98-.398-.97-.766-.01-.457.51-.755 1.16-.755.74 0 1.18.402 1.28.895l1.94-.12z"/><path fill="#fff" d="M1053.55 698.332c-.01 3.733 2.9 5.907 6.39 5.907 3.62 0 6.26-2.395 6.26-5.983 0-3.358-2.31-5.685-5.52-5.685-.48 0-.95.085-1.37.179l4.23-6.205h-3.71l-4.04 5.983c-1.52 2.233-2.23 3.963-2.24 5.804zm3.61.034c0-1.73 1.12-2.957 2.76-2.957 1.59 0 2.73 1.227 2.73 2.975 0 1.73-1.12 2.974-2.73 2.974-1.64 0-2.76-1.244-2.76-2.992zm11.32.699c.1 3.103 2.8 5.174 6.64 5.174s6.72-2.105 6.72-5.208c0-2.326-1.62-4.593-5.29-4.951v-.137l4.69-4.738v-2.66h-11.88v3.017h7.34v.12l-3.87 4.023v2.565h1.89c2.16 0 3.28 1.074 3.28 2.514 0 1.492-1.19 2.412-2.87 2.412-1.59 0-2.83-.818-2.93-2.131h-3.72zm23.61-12.52h-3.46l-4.33 2.736v3.273l4-2.506h.1V704h3.69v-17.455z"/><path fill="#F34" d="M1117.03 678h4.35c2.29 0 3.51-1.193 3.51-2.814 0-1.506-1.08-2.416-2.24-2.471v-.099c1.06-.239 1.84-.99 1.84-2.188 0-1.526-1.14-2.61-3.38-2.61h-4.08V678zm2.15-1.76v-2.704h1.81c1.03 0 1.67.596 1.67 1.436 0 .766-.52 1.268-1.72 1.268h-1.76zm0-4.161v-2.521h1.64c.95 0 1.5.492 1.5 1.228 0 .806-.66 1.293-1.54 1.293h-1.6zm9.24 6.065c1.13 0 1.86-.492 2.24-1.203h.06V678h2v-5.151c0-1.819-1.54-2.585-3.24-2.585-1.83 0-3.03.875-3.32 2.267l1.96.159c.14-.507.59-.88 1.35-.88.72 0 1.14.363 1.14.99v.03c0 .492-.53.556-1.85.686-1.51.139-2.87.646-2.87 2.351 0 1.512 1.08 2.277 2.53 2.277zm.61-1.461c-.65 0-1.12-.304-1.12-.885 0-.597.49-.89 1.24-.995.46-.064 1.22-.174 1.47-.343v.811c0 .8-.66 1.412-1.59 1.412zm9.4-6.319h-1.44v-1.83h-2.12v1.83h-1.04v1.591h1.04v3.977c-.01 1.496 1.01 2.237 2.55 2.172.55-.019.93-.129 1.15-.198l-.33-1.576c-.11.019-.33.069-.53.069-.42 0-.72-.159-.72-.746v-3.698h1.44v-1.591zm5.44 0h-1.44v-1.83h-2.11v1.83h-1.05v1.591h1.05v3.977c-.01 1.496 1.01 2.237 2.54 2.172.55-.019.94-.129 1.15-.198l-.33-1.576c-.11.019-.33.069-.53.069-.42 0-.72-.159-.72-.746v-3.698h1.44v-1.591zm4.78 7.785c1.89 0 3.16-.92 3.46-2.337l-1.96-.129c-.21.582-.76.885-1.47.885-1.06 0-1.73-.701-1.73-1.839v-.005h5.2v-.582c0-2.595-1.57-3.878-3.59-3.878-2.24 0-3.7 1.596-3.7 3.953 0 2.421 1.44 3.932 3.79 3.932zm-1.7-4.738c.05-.87.71-1.566 1.65-1.566.92 0 1.55.656 1.56 1.566h-3.21zm6.59 4.589h2.11v-4.32c0-.94.69-1.586 1.62-1.586.3 0 .7.049.9.114v-1.879a3.16 3.16 0 00-.67-.075c-.85 0-1.55.497-1.83 1.442h-.08v-1.332h-2.05V678zm7.26 2.864c1.58 0 2.42-.806 2.85-2.039l2.97-8.451-2.25-.01-1.59 5.608h-.08l-1.58-5.608h-2.23l2.74 7.855-.12.323c-.28.716-.82.751-1.56.522l-.48 1.581c.3.129.8.219 1.33.219z"/><path fill="#fff" d="M1116.31 692.29c0 3.358 2.29 5.684 5.52 5.684.48 0 .94-.085 1.37-.196l-4.23 6.222h3.71l4.04-5.983c1.5-2.233 2.22-3.963 2.24-5.804.01-3.75-2.92-5.906-6.39-5.906-3.64 0-6.26 2.395-6.26 5.983zm3.54-.128c0-1.73 1.13-2.974 2.74-2.974 1.62 0 2.76 1.244 2.76 2.991 0 1.73-1.14 2.957-2.76 2.957-1.61 0-2.74-1.227-2.74-2.974zm18.41 12.077c3.94 0 6.77-2.105 6.78-4.935-.01-2.182-1.69-3.963-3.79-4.313v-.119c1.83-.375 3.13-1.952 3.14-3.869-.01-2.702-2.6-4.696-6.13-4.696s-6.13 1.994-6.12 4.696c-.01 1.909 1.28 3.494 3.14 3.869v.119c-2.13.35-3.79 2.131-3.78 4.313-.01 2.83 2.82 4.935 6.76 4.935zm0-2.711c-1.75 0-2.93-1.039-2.93-2.514 0-1.508 1.24-2.599 2.93-2.599 1.69 0 2.93 1.091 2.93 2.599 0 1.483-1.18 2.514-2.93 2.514zm0-7.798c-1.47 0-2.52-.963-2.52-2.344 0-1.363 1.03-2.301 2.52-2.301s2.52.946 2.52 2.301c0 1.381-1.05 2.344-2.52 2.344zm18.91 6.997c0 2.097 1.35 3.878 3.85 3.878 2.47 0 3.84-1.781 3.84-3.878v-.92c0-2.114-1.34-3.878-3.84-3.878-2.47 0-3.85 1.781-3.85 3.878v.92zm-8.96-9.988c0 2.096 1.35 3.86 3.84 3.86 2.48 0 3.85-1.747 3.85-3.86v-.921c0-2.113-1.34-3.878-3.85-3.878-2.44 0-3.84 1.765-3.84 3.878v.921zm1.14 13.261h2.22l12-17.455h-2.22l-12 17.455zm10.3-4.193c0-.835.34-1.696 1.37-1.696 1.07 0 1.34.861 1.34 1.696v.92c0 .835-.3 1.679-1.34 1.679s-1.37-.869-1.37-1.679v-.92zm-8.94-9.989c0-.809.33-1.696 1.34-1.696 1.07 0 1.35.861 1.35 1.696v.921c0 .835-.31 1.679-1.35 1.679-1.01 0-1.34-.844-1.34-1.679v-.921z"/><path fill="#F34" d="M1227.26 678h2.16v-3.609h1.57l1.93 3.609h2.37l-2.16-3.957c1.16-.498 1.8-1.507 1.8-2.899 0-2.023-1.34-3.326-3.65-3.326h-4.02V678zm2.16-5.339v-3.083h1.45c1.24 0 1.84.552 1.84 1.566 0 1.009-.6 1.517-1.83 1.517h-1.46zm9.17 5.483c1.13 0 1.86-.492 2.23-1.203h.06V678h2.01v-5.151c0-1.819-1.54-2.585-3.24-2.585-1.83 0-3.04.875-3.33 2.267l1.96.159c.14-.507.6-.88 1.36-.88.72 0 1.13.363 1.13.99v.03c0 .492-.52.556-1.85.686-1.51.139-2.87.646-2.87 2.351 0 1.512 1.08 2.277 2.54 2.277zm.6-1.461c-.65 0-1.11-.304-1.11-.885 0-.597.49-.89 1.23-.995.47-.064 1.22-.174 1.48-.343v.811c0 .8-.67 1.412-1.6 1.412zm7.46-3.098c0-.984.59-1.561 1.45-1.561.85 0 1.36.557 1.35 1.492V678h2.12v-4.862c0-1.78-1.04-2.874-2.63-2.874-1.14 0-1.96.557-2.3 1.447h-.09v-1.347h-2.02V678h2.12v-4.415zm10.03 7.438c2.18 0 3.73-.995 3.73-2.948v-7.711h-2.1v1.282h-.08c-.28-.621-.9-1.382-2.18-1.382-1.68 0-3.09 1.303-3.09 3.903 0 2.54 1.37 3.724 3.09 3.724 1.22 0 1.9-.612 2.18-1.243h.09v1.397c0 1.049-.67 1.456-1.59 1.456-.93 0-1.41-.407-1.58-.87l-1.96.264c.25 1.203 1.43 2.128 3.49 2.128zm.05-4.723c-1.04 0-1.61-.826-1.61-2.143 0-1.298.56-2.207 1.61-2.207 1.02 0 1.6.87 1.6 2.207 0 1.347-.59 2.143-1.6 2.143zm8.85 1.849c1.89 0 3.16-.92 3.46-2.337l-1.96-.129c-.21.582-.76.885-1.47.885-1.05 0-1.73-.701-1.73-1.839v-.005h5.21v-.582c0-2.595-1.58-3.878-3.59-3.878-2.25 0-3.71 1.596-3.71 3.953 0 2.421 1.44 3.932 3.79 3.932zm-1.7-4.738c.05-.87.71-1.566 1.65-1.566.92 0 1.56.656 1.56 1.566h-3.21z"/><path fill="#fff" d="M1188.91 704h12.44v-3.017h-7.33v-.119l2.55-2.498c3.59-3.272 4.55-4.909 4.55-6.894 0-3.026-2.47-5.165-6.21-5.165-3.66 0-6.18 2.19-6.17 5.616h3.5c-.01-1.67 1.05-2.693 2.65-2.693 1.53 0 2.67.955 2.67 2.489 0 1.389-.85 2.343-2.44 3.869l-6.21 5.753V704zm14.84-11.71c0 3.358 2.29 5.684 5.52 5.684.49 0 .95-.085 1.37-.196l-4.23 6.222h3.71l4.04-5.983c1.5-2.233 2.23-3.963 2.24-5.804.01-3.75-2.92-5.906-6.39-5.906-3.64 0-6.26 2.395-6.26 5.983zm3.54-.128c0-1.73 1.13-2.974 2.74-2.974 1.62 0 2.76 1.244 2.76 2.991 0 1.73-1.14 2.957-2.76 2.957-1.61 0-2.74-1.227-2.74-2.974zm18.41 12.077c3.94 0 6.77-2.105 6.78-4.935-.01-2.182-1.69-3.963-3.79-4.313v-.119c1.83-.375 3.13-1.952 3.14-3.869-.01-2.702-2.6-4.696-6.13-4.696s-6.12 1.994-6.12 4.696c0 1.909 1.28 3.494 3.14 3.869v.119c-2.13.35-3.79 2.131-3.78 4.313-.01 2.83 2.83 4.935 6.76 4.935zm0-2.711c-1.75 0-2.93-1.039-2.93-2.514 0-1.508 1.24-2.599 2.93-2.599 1.69 0 2.94 1.091 2.94 2.599 0 1.483-1.19 2.514-2.94 2.514zm0-7.798c-1.47 0-2.52-.963-2.52-2.344 0-1.363 1.03-2.301 2.52-2.301s2.53.946 2.53 2.301c0 1.381-1.06 2.344-2.53 2.344zm9.39 10.27h3.63v-4.159l.98-1.117 3.58 5.276h4.25l-5.11-7.423 4.86-5.668h-4.17l-4.19 4.969h-.2v-9.333h-3.63V704zm13.97 0h3.63v-7.858c0-1.449.92-2.412 2.13-2.412 1.2 0 2 .818 2 2.105V704h3.52v-7.994c0-1.355.77-2.276 2.09-2.276 1.16 0 2.03.725 2.03 2.182V704h3.62v-8.804c0-2.838-1.68-4.457-4.12-4.457-1.92 0-3.41.98-3.95 2.48h-.13c-.42-1.517-1.76-2.48-3.56-2.48-1.76 0-3.1.937-3.64 2.48h-.16v-2.31h-3.46V704z"/><path fill="#F34" d="M724.655 293.818v6.428c0 1.164-.815 2.004-2.068 2.004-1.248 0-2.068-.84-2.068-2.004v-6.428h-2.153v6.612c0 2.228 1.681 3.714 4.221 3.714 2.531 0 4.221-1.486 4.221-3.714v-6.612h-2.153zm6.002 5.767c.005-.984.592-1.561 1.447-1.561.85 0 1.362.557 1.357 1.492V304h2.118v-4.862c0-1.78-1.044-2.874-2.635-2.874-1.133 0-1.953.557-2.297 1.447h-.089v-1.347h-2.018V304h2.117v-4.415zm6.591-5.767v8.178c.005 1.457.761 2.113 2.387 2.054.527-.025.815-.1 1.034-.169l-.338-1.542c-.085.03-.184.055-.398.06-.408.005-.562-.204-.567-.686v-7.895h-2.118zm7.662 10.331c2.316 0 3.758-1.586 3.758-3.937 0-2.367-1.442-3.948-3.758-3.948-2.317 0-3.759 1.581-3.759 3.948 0 2.351 1.442 3.937 3.759 3.937zm.01-1.64c-1.069 0-1.616-.98-1.616-2.312 0-1.333.547-2.317 1.616-2.317 1.049 0 1.596.984 1.596 2.317 0 1.332-.547 2.312-1.596 2.312zm8.576 1.64c2.033 0 3.311-1.193 3.41-2.948h-1.998c-.125.815-.662 1.273-1.387 1.273-.99 0-1.631-.831-1.631-2.292 0-1.442.646-2.267 1.631-2.267.775 0 1.272.512 1.387 1.273h1.998c-.089-1.765-1.427-2.924-3.42-2.924-2.317 0-3.749 1.606-3.749 3.948 0 2.321 1.407 3.937 3.759 3.937zm4.766-.149h2.118v-2.426l.572-.651 2.083 3.077h2.481l-2.978-4.33 2.834-3.306h-2.432l-2.446 2.898h-.114v-5.444h-2.118V304zm11.314.149c1.889 0 3.162-.92 3.46-2.337l-1.958-.129c-.214.582-.761.885-1.467.885-1.059 0-1.73-.701-1.73-1.839v-.005h5.2v-.582c0-2.595-1.571-3.878-3.589-3.878-2.247 0-3.704 1.596-3.704 3.953 0 2.421 1.437 3.932 3.788 3.932zm-1.695-4.738c.045-.87.706-1.566 1.646-1.566.919 0 1.556.656 1.561 1.566h-3.207zm9.396 4.713c1.233 0 1.875-.711 2.168-1.347h.089V304h2.088v-10.182h-2.113v3.828h-.064c-.284-.621-.895-1.382-2.173-1.382-1.675 0-3.092 1.303-3.092 3.928 0 2.555 1.357 3.932 3.097 3.932zm.671-1.685c-1.039 0-1.605-.925-1.605-2.257 0-1.323.556-2.232 1.605-2.232 1.03 0 1.606.87 1.606 2.232s-.586 2.257-1.606 2.257z"/><path fill="#fff" d="M730.462 332h12.443v-3.017h-7.33v-.119l2.549-2.498c3.588-3.272 4.551-4.909 4.551-6.894 0-3.026-2.472-5.165-6.213-5.165-3.665 0-6.179 2.19-6.171 5.616h3.503c-.008-1.67 1.048-2.693 2.642-2.693 1.534 0 2.676.955 2.676 2.489 0 1.389-.852 2.343-2.437 3.869l-6.213 5.753V332zm14.844-4.935c.102 3.103 2.804 5.174 6.639 5.174 3.844 0 6.725-2.105 6.725-5.208 0-2.326-1.62-4.593-5.293-4.951v-.137l4.688-4.738v-2.66h-11.881v3.017h7.347v.12l-3.87 4.023v2.565h1.884c2.165 0 3.281 1.074 3.281 2.514 0 1.492-1.185 2.412-2.872 2.412-1.585 0-2.83-.818-2.923-2.131h-3.725zm20.122-4.261a4.182 4.182 0 004.185-4.185 4.183 4.183 0 10-8.369 0 4.186 4.186 0 004.184 4.185zm0-2.42a1.768 1.768 0 010-3.537c.98 0 1.764.792 1.764 1.772 0 .972-.784 1.765-1.764 1.765z"/><g clip-path="url(#clip1)"><path fill="#000" d="M193.557 800.769C201.371 782.137 219.696 770 240.013 770H1259.99c20.31 0 38.64 12.137 46.45 30.769l79.69 190a49.714 49.714 0 010 38.461l-79.69 190c-7.81 18.63-26.14 30.77-46.45 30.77H240.013c-20.317 0-38.642-12.14-46.456-30.77l-79.686-190a49.705 49.705 0 010-38.461l79.686-190z"/><circle cx="999.924" cy="1005" r="25" fill="#F34" transform="rotate(80 999.924 1005)"/><rect width="10" height="200" x="1151.7" y="973.161" fill="#fff" rx="5" transform="rotate(80 1151.7 973.161)"/><path fill="#333" d="M862.114 1147.89c-1.952 1.95-5.124 1.95-7.027-.05a199.971 199.971 0 01-51.244-98.82A200.001 200.001 0 011000 810c39.56 0 78.22 11.73 111.11 33.706a200.031 200.031 0 0173.67 89.757 200.126 200.126 0 0111.38 115.557 199.94 199.94 0 01-51.25 98.82c-1.9 2-5.07 2-7.02.05-1.96-1.96-1.95-5.12-.05-7.12a190.012 190.012 0 0037.7-203.48A190.009 190.009 0 001000 820a189.995 189.995 0 00-175.537 117.29 190.006 190.006 0 0037.698 203.48c1.9 2 1.906 5.16-.047 7.12z"/><path fill="#F34" d="M862.114 1147.89c-1.952 1.95-5.123 1.95-7.027-.05a200.009 200.009 0 01-52.625-169.127A200.006 200.006 0 011000 810a199.989 199.989 0 01161.8 82.443 199.943 199.943 0 0134.89 81.342c.5 2.715-1.36 5.278-4.09 5.71-2.73.432-5.28-1.43-5.79-4.145a189.827 189.827 0 00-33.1-77.029 189.99 189.99 0 00-239.968-57.612 190.007 190.007 0 00-101.403 139.568 190.001 190.001 0 0049.822 160.493c1.901 2 1.906 5.16-.047 7.12z"/><path fill="#333" d="M637.886 1147.89c1.952 1.95 5.124 1.95 7.027-.05a199.98 199.98 0 0051.244-98.82 200.001 200.001 0 10-392.314 0 199.971 199.971 0 0051.244 98.82c1.903 2 5.075 2 7.027.05 1.953-1.96 1.947-5.12.047-7.12a190.006 190.006 0 0132.281-288.749 189.995 189.995 0 01211.116 0 189.995 189.995 0 0180.791 195.049 189.98 189.98 0 01-48.51 93.7c-1.9 2-1.906 5.16.047 7.12z"/><path fill="#F34" d="M362.114 1147.89c-1.952 1.95-5.124 1.95-7.027-.05a199.994 199.994 0 01-35.503-224.155c1.192-2.491 4.209-3.467 6.67-2.213 2.46 1.254 3.432 4.262 2.243 6.755a189.995 189.995 0 00-16.158 111.493 190.015 190.015 0 0049.822 101.05c1.9 2 1.906 5.16-.047 7.12z"/><circle cx="500.001" cy="1010" r="25" fill="#F34" transform="rotate(-65 500.001 1010)"/><rect width="10" height="200" x="357.41" y="949.023" fill="#fff" rx="5" transform="rotate(-65 357.41 949.023)"/><path fill="#F34" d="M724.655 803.818v6.428c0 1.164-.815 2.004-2.068 2.004-1.248 0-2.068-.84-2.068-2.004v-6.428h-2.153v6.612c0 2.228 1.681 3.714 4.221 3.714 2.531 0 4.221-1.486 4.221-3.714v-6.612h-2.153zm6.002 5.767c.005-.984.592-1.561 1.447-1.561.85 0 1.362.557 1.357 1.492V814h2.118v-4.862c0-1.78-1.044-2.874-2.635-2.874-1.133 0-1.953.557-2.297 1.447h-.089v-1.347h-2.018V814h2.117v-4.415zm6.591-5.767v8.178c.005 1.457.761 2.113 2.387 2.054.527-.025.815-.1 1.034-.169l-.338-1.542c-.085.03-.184.055-.398.06-.408.005-.562-.204-.567-.686v-7.895h-2.118zm7.662 10.331c2.316 0 3.758-1.586 3.758-3.937 0-2.367-1.442-3.948-3.758-3.948-2.317 0-3.759 1.581-3.759 3.948 0 2.351 1.442 3.937 3.759 3.937zm.01-1.64c-1.069 0-1.616-.98-1.616-2.312 0-1.333.547-2.317 1.616-2.317 1.049 0 1.596.984 1.596 2.317 0 1.332-.547 2.312-1.596 2.312zm8.576 1.64c2.033 0 3.311-1.193 3.41-2.948h-1.998c-.125.815-.662 1.273-1.387 1.273-.99 0-1.631-.831-1.631-2.292 0-1.442.646-2.267 1.631-2.267.775 0 1.272.512 1.387 1.273h1.998c-.089-1.765-1.427-2.924-3.42-2.924-2.317 0-3.749 1.606-3.749 3.948 0 2.321 1.407 3.937 3.759 3.937zm4.766-.149h2.118v-2.426l.572-.651 2.083 3.077h2.481l-2.978-4.33 2.834-3.306h-2.432l-2.446 2.898h-.114v-5.444h-2.118V814zm11.314.149c1.889 0 3.162-.92 3.46-2.337l-1.958-.129c-.214.582-.761.885-1.467.885-1.059 0-1.73-.701-1.73-1.839v-.005h5.2v-.582c0-2.595-1.571-3.878-3.589-3.878-2.247 0-3.704 1.596-3.704 3.953 0 2.421 1.437 3.932 3.788 3.932zm-1.695-4.738c.045-.87.706-1.566 1.646-1.566.919 0 1.556.656 1.561 1.566h-3.207zm9.396 4.713c1.233 0 1.875-.711 2.168-1.347h.089V814h2.088v-10.182h-2.113v3.828h-.064c-.284-.621-.895-1.382-2.173-1.382-1.675 0-3.092 1.303-3.092 3.928 0 2.555 1.357 3.932 3.097 3.932zm.671-1.685c-1.039 0-1.605-.925-1.605-2.257 0-1.323.556-2.232 1.605-2.232 1.03 0 1.606.87 1.606 2.232s-.586 2.257-1.606 2.257z"/><path fill="#fff" d="M730.462 842h12.443v-3.017h-7.33v-.119l2.549-2.498c3.588-3.272 4.551-4.909 4.551-6.894 0-3.026-2.472-5.165-6.213-5.165-3.665 0-6.179 2.19-6.171 5.616h3.503c-.008-1.67 1.048-2.693 2.642-2.693 1.534 0 2.676.955 2.676 2.489 0 1.389-.852 2.343-2.437 3.869l-6.213 5.753V842zm14.844-4.935c.102 3.103 2.804 5.174 6.639 5.174 3.844 0 6.725-2.105 6.725-5.208 0-2.326-1.62-4.593-5.293-4.951v-.137l4.688-4.738v-2.66h-11.881v3.017h7.347v.12l-3.87 4.023v2.565h1.884c2.165 0 3.281 1.074 3.281 2.514 0 1.492-1.185 2.412-2.872 2.412-1.585 0-2.83-.818-2.923-2.131h-3.725zm20.122-4.261a4.182 4.182 0 004.185-4.185 4.183 4.183 0 10-8.369 0 4.186 4.186 0 004.184 4.185zm0-2.42a1.768 1.768 0 010-3.537c.98 0 1.764.792 1.764 1.772 0 .972-.784 1.765-1.764 1.765z"/></g><path fill="#000" d="M193.557-219.231C201.371-237.863 219.696-250 240.013-250H1259.99c20.31 0 38.64 12.137 46.45 30.769l79.69 190a49.716 49.716 0 010 38.462l-79.69 190c-7.81 18.632-26.14 30.769-46.45 30.769H240.013c-20.317 0-38.642-12.137-46.456-30.769l-79.686-190a49.707 49.707 0 010-38.462l79.686-190z"/><path fill="#fff" d="M599.862 7.023c12.955 0 21.682-6.307 23.727-16.023l-13.431-.886c-1.466 3.988-5.216 6.068-10.057 6.068-7.262 0-11.864-4.807-11.864-12.614v-.034h35.659v-3.988c0-17.796-10.772-26.591-24.613-26.591-15.409 0-25.398 10.943-25.398 27.102 0 16.602 9.852 26.966 25.977 26.966zm-11.625-32.489c.307-5.966 4.841-10.739 11.284-10.739 6.307 0 10.671 4.5 10.705 10.74h-21.989zm45.137-38.352v56.08c.034 9.988 5.215 14.488 16.363 14.079 3.614-.17 5.591-.682 7.091-1.16L654.51-5.385c-.58.204-1.261.375-2.727.409-2.796.034-3.853-1.398-3.887-4.705v-54.136h-14.522zm52.738 70.84c12.955 0 21.682-6.306 23.727-16.022l-13.431-.886c-1.466 3.988-5.216 6.068-10.057 6.068-7.262 0-11.864-4.807-11.864-12.614v-.034h35.659v-3.988c0-17.796-10.772-26.591-24.613-26.591-15.409 0-25.398 10.943-25.398 27.102 0 16.602 9.852 26.966 25.977 26.966zm-11.625-32.488c.307-5.966 4.841-10.739 11.284-10.739 6.307 0 10.671 4.5 10.705 10.74h-21.989zm68.796 32.489c13.943 0 22.704-8.182 23.386-20.216h-13.705c-.852 5.59-4.534 8.727-9.511 8.727-6.784 0-11.182-5.693-11.182-15.716 0-9.886 4.432-15.545 11.182-15.545 5.318 0 8.727 3.511 9.511 8.727h13.705c-.614-12.102-9.784-20.045-23.455-20.045-15.886 0-25.704 11.01-25.704 27.068 0 15.92 9.648 27 25.773 27zm60.537-53.387h-9.853v-12.545h-14.522v12.545h-7.159v10.91h7.159v27.272c-.069 10.262 6.92 15.341 17.454 14.898 3.75-.136 6.409-.886 7.875-1.364L802.49-5.455c-.716.137-2.25.478-3.614.478-2.897 0-4.909-1.091-4.909-5.114v-25.364h9.853v-10.909zM813.28 6h14.523v-29.625c0-6.443 4.704-10.875 11.113-10.875 2.012 0 4.773.34 6.137.784v-12.886c-1.296-.307-3.103-.512-4.569-.512-5.863 0-10.67 3.41-12.579 9.887h-.546v-9.137H813.28V6zm39.281 0h14.523v-52.364h-14.523V6zm7.296-59.114c4.329 0 7.875-3.306 7.875-7.363 0-4.023-3.546-7.33-7.875-7.33-4.296 0-7.841 3.307-7.841 7.33 0 4.056 3.545 7.363 7.841 7.363zM878.717 6h14.523v-16.636l3.921-4.466L911.445 6h17.011l-20.42-29.693 19.431-22.67h-16.67L894.024-26.49h-.784v-37.33h-14.523V6z"/><path fill="#F34" d="M636.708 48.91h-3.844l-2.71 9.366h-.136l-2.719-9.367h-3.835L628.04 62h4.091l4.577-13.09zM638.566 62h3.631V48.91h-3.631V62zm1.824-14.778c1.082 0 1.969-.827 1.969-1.841 0-1.006-.887-1.833-1.969-1.833-1.074 0-1.96.827-1.96 1.833 0 1.014.886 1.84 1.96 1.84zm15.607 5.42c-.324-2.412-2.267-3.903-5.574-3.903-3.349 0-5.557 1.55-5.548 4.074-.009 1.96 1.227 3.23 3.784 3.741l2.267.452c1.142.23 1.662.647 1.679 1.304-.017.775-.861 1.33-2.131 1.33-1.295 0-2.156-.555-2.377-1.62l-3.571.187c.34 2.506 2.471 4.049 5.94 4.049 3.392 0 5.821-1.73 5.829-4.313-.008-1.892-1.244-3.025-3.784-3.545l-2.369-.478c-1.219-.264-1.67-.681-1.662-1.312-.008-.784.878-1.295 2.003-1.295 1.261 0 2.011.69 2.19 1.534l3.324-.205zm10.98 3.784c.008 1.756-1.194 2.676-2.498 2.676-1.372 0-2.258-.963-2.267-2.505v-7.688h-3.63v8.335c.008 3.06 1.798 4.926 4.431 4.926 1.969 0 3.384-1.014 3.972-2.548h.136V62h3.486V48.91h-3.63v7.516zm10.267 5.821c1.935 0 3.188-.844 3.827-2.062h.102V62h3.443v-8.83c0-3.119-2.642-4.431-5.556-4.431-3.137 0-5.199 1.5-5.702 3.886l3.358.273c.247-.87 1.023-1.509 2.327-1.509 1.235 0 1.943.622 1.943 1.696v.051c0 .844-.895.955-3.171 1.176-2.591.24-4.917 1.108-4.917 4.032 0 2.59 1.849 3.903 4.346 3.903zm1.04-2.505c-1.116 0-1.918-.52-1.918-1.518 0-1.022.844-1.525 2.123-1.704.792-.11 2.088-.298 2.522-.588v1.389c0 1.372-1.133 2.42-2.727 2.42zm9.149-15.197v14.02c.009 2.498 1.304 3.623 4.091 3.52.904-.042 1.398-.17 1.773-.29l-.58-2.642c-.145.052-.315.094-.681.103-.699.008-.964-.35-.972-1.176V44.544h-3.631zm17.598 17.668c2.113 0 3.213-1.219 3.715-2.31h.154V62h3.579V44.545h-3.622v6.563h-.111c-.485-1.065-1.534-2.37-3.724-2.37-2.872 0-5.301 2.234-5.301 6.734 0 4.38 2.327 6.741 5.31 6.741zm1.15-2.89c-1.781 0-2.753-1.584-2.753-3.868 0-2.267.955-3.827 2.753-3.827 1.764 0 2.753 1.491 2.753 3.827 0 2.335-1.006 3.869-2.753 3.869zM715.464 62h3.631V48.91h-3.631V62zm1.824-14.778c1.083 0 1.969-.827 1.969-1.841 0-1.006-.886-1.833-1.969-1.833-1.074 0-1.96.827-1.96 1.833 0 1.014.886 1.84 1.96 1.84zm15.608 5.42c-.324-2.412-2.267-3.903-5.574-3.903-3.35 0-5.557 1.55-5.549 4.074-.008 1.96 1.228 3.23 3.785 3.741l2.267.452c1.142.23 1.662.647 1.679 1.304-.017.775-.861 1.33-2.131 1.33-1.296 0-2.156-.555-2.378-1.62l-3.571.187c.341 2.506 2.472 4.049 5.94 4.049 3.392 0 5.821-1.73 5.83-4.313-.009-1.892-1.244-3.025-3.784-3.545l-2.37-.478c-1.218-.264-1.67-.681-1.661-1.312-.009-.784.877-1.295 2.002-1.295 1.262 0 2.012.69 2.191 1.534l3.324-.205zm2.584 14.267h3.631v-7.006h.111c.502 1.091 1.602 2.31 3.716 2.31 2.982 0 5.309-2.36 5.309-6.741 0-4.5-2.429-6.733-5.301-6.733-2.19 0-3.239 1.304-3.724 2.369h-.162v-2.199h-3.58v18zm3.554-11.455c0-2.335.989-3.826 2.753-3.826 1.798 0 2.753 1.56 2.753 3.827 0 2.284-.972 3.869-2.753 3.869-1.747 0-2.753-1.534-2.753-3.87zm11.634-10.909v14.02c.008 2.498 1.304 3.623 4.091 3.52.903-.042 1.397-.17 1.772-.29l-.579-2.642c-.145.052-.316.094-.682.103-.699.008-.963-.35-.972-1.176V44.544h-3.63zm10.951 17.702c1.935 0 3.188-.844 3.827-2.062h.102V62h3.443v-8.83c0-3.119-2.642-4.431-5.556-4.431-3.137 0-5.199 1.5-5.702 3.886l3.358.273c.247-.87 1.023-1.509 2.327-1.509 1.235 0 1.943.622 1.943 1.696v.051c0 .844-.895.955-3.171 1.176-2.591.24-4.917 1.108-4.917 4.032 0 2.59 1.849 3.903 4.346 3.903zm1.04-2.505c-1.116 0-1.918-.52-1.918-1.518 0-1.022.844-1.525 2.123-1.704.792-.11 2.088-.298 2.522-.588v1.389c0 1.372-1.133 2.42-2.727 2.42zm10.922 7.167c2.702 0 4.133-1.38 4.875-3.494l5.088-14.489-3.844-.017-2.736 9.614h-.136l-2.71-9.614H770.3l4.696 13.466-.213.554c-.478 1.227-1.39 1.287-2.668.895l-.818 2.71c.52.222 1.364.375 2.284.375zm28.268-14.267c-.324-2.412-2.267-3.903-5.574-3.903-3.35 0-5.557 1.55-5.548 4.074-.009 1.96 1.227 3.23 3.784 3.741l2.267.452c1.142.23 1.662.647 1.679 1.304-.017.775-.861 1.33-2.131 1.33-1.295 0-2.156-.555-2.378-1.62l-3.571.187c.341 2.506 2.472 4.049 5.94 4.049 3.393 0 5.821-1.73 5.83-4.313-.009-1.892-1.244-3.025-3.784-3.545l-2.369-.478c-1.219-.264-1.671-.681-1.662-1.312-.009-.784.878-1.295 2.003-1.295 1.261 0 2.011.69 2.19 1.534l3.324-.205zm4.826 14.267c2.701 0 4.133-1.38 4.875-3.494l5.088-14.489-3.844-.017-2.736 9.614h-.136l-2.71-9.614h-3.819l4.696 13.466-.213.554c-.477 1.227-1.389 1.287-2.667.895l-.818 2.71c.52.222 1.363.375 2.284.375zm22.713-14.267c-.324-2.412-2.267-3.903-5.574-3.903-3.35 0-5.557 1.55-5.548 4.074-.009 1.96 1.227 3.23 3.784 3.741l2.267.452c1.142.23 1.662.647 1.679 1.304-.017.775-.861 1.33-2.131 1.33-1.295 0-2.156-.555-2.378-1.62l-3.571.187c.341 2.506 2.472 4.049 5.941 4.049 3.392 0 5.821-1.73 5.829-4.313-.008-1.892-1.244-3.025-3.784-3.545l-2.369-.478c-1.219-.264-1.671-.681-1.662-1.312-.009-.784.878-1.295 2.003-1.295 1.261 0 2.011.69 2.19 1.534l3.324-.205zm9.547-3.733h-2.463v-3.136h-3.63v3.136h-1.79v2.727h1.79v6.819c-.017 2.565 1.73 3.835 4.363 3.724a7.058 7.058 0 001.969-.34l-.571-2.703c-.179.034-.563.12-.903.12-.725 0-1.228-.273-1.228-1.279v-6.34h2.463v-2.728zm8.191 13.347c3.238 0 5.42-1.577 5.932-4.006l-3.358-.222c-.367.998-1.304 1.517-2.515 1.517-1.815 0-2.966-1.201-2.966-3.153v-.009h8.915v-.997c0-4.449-2.693-6.647-6.153-6.647-3.852 0-6.35 2.735-6.35 6.775 0 4.15 2.463 6.742 6.495 6.742zm-2.907-8.123c.077-1.491 1.211-2.684 2.821-2.684 1.577 0 2.668 1.125 2.677 2.684h-5.498zM855.504 62h3.63v-7.858c0-1.449.921-2.412 2.131-2.412 1.193 0 1.994.818 1.994 2.105V62h3.52v-7.994c0-1.355.776-2.276 2.097-2.276 1.159 0 2.028.725 2.028 2.182V62h3.622v-8.804c0-2.838-1.687-4.457-4.125-4.457-1.917 0-3.409.98-3.946 2.48h-.136c-.418-1.517-1.756-2.48-3.554-2.48-1.764 0-3.102.937-3.648 2.48h-.153v-2.31h-3.46V62z"/><rect width="400" height="5" x="550" y="185" fill="#333" rx="2.5"/><rect width="275" height="5" x="550" y="185" fill="#F34" rx="2.5"/></g><defs><pattern id="pattern0" width="1" height="1" patternContentUnits="objectBoundingBox"><use transform="scale(.00063)" xlink:href="#image0"/></pattern><clipPath id="clip0"><path fill="#fff" d="M0 0h1500v1000H0z"/></clipPath><clipPath id="clip1"><path fill="#fff" d="M0 0h1280v480H0z" transform="translate(110 770)"/></clipPath></defs></svg>